<?xml version="1.0" encoding="UTF-8"?>
<svg width="22px" height="22px" viewBox="0 0 22 22" version="1.1" xmlns="http://www.w3.org/2000/svg" xmlns:xlink="http://www.w3.org/1999/xlink">
    <!-- Generator: Sketch 41 (35326) - http://www.bohemiancoding.com/sketch -->
    <title>tip-shape</title>
    <desc>Created with Sketch.</desc>
    <defs></defs>
    <g id="tip-Page-1" stroke="none" stroke-width="1" fill="none" fill-rule="evenodd">
        <g id="tip-Artboard" transform="translate(-1281.000000, -163.000000)" fill="#3A3A3A">
            <path d="M1291.85306,163.001003 C1285.77914,163.082217 1280.91979,168.072968 1281.001,174.148546 C1281.08222,180.219736 1286.07303,185.080693 1292.14695,184.998985 C1298.22086,184.917833 1303.08015,179.92702 1302.999,173.851504 C1302.91884,167.77914 1297.92715,162.91979 1291.85306,163.001003 L1291.85306,163.001003 L1291.85306,163.001003 Z M1293.07256,166.667055 C1294.19027,166.667055 1294.52025,167.315035 1294.52025,168.057269 C1294.52025,168.984366 1293.77759,169.841375 1292.5116,169.841375 C1291.45236,169.841375 1290.94846,169.30817 1290.97837,168.428108 C1290.97893,167.685935 1291.60064,166.667055 1293.07256,166.667055 L1293.07256,166.667055 Z M1290.20523,180.87507 C1289.44099,180.87507 1288.88152,180.411027 1289.41584,178.371289 L1290.29219,174.755609 C1290.44405,174.175741 1290.46921,173.943719 1290.29219,173.943719 C1290.06382,173.943719 1289.07127,174.344411 1288.48454,174.73886 L1288.10319,174.113378 C1289.9627,172.561417 1292.10034,171.650513 1293.01644,171.650513 C1293.78006,171.650513 1293.90689,172.554618 1293.52554,173.944708 L1292.52143,177.747105 C1292.34442,178.419066 1292.42093,178.651087 1292.59795,178.651087 C1292.82626,178.651087 1293.57851,178.373452 1294.3171,177.792533 L1294.74857,178.372464 C1292.94202,180.179006 1290.97046,180.87507 1290.20523,180.87507 L1290.20523,180.87507 L1290.20523,180.87507 Z" id="tip-shape"></path>
        </g>
    </g>
</svg>