<?xml version="1.0" encoding="UTF-8"?>
<svg width="23px" height="20px" viewBox="0 0 23 20" version="1.1" xmlns="http://www.w3.org/2000/svg" xmlns:xlink="http://www.w3.org/1999/xlink">
    <!-- Generator: Sketch 41 (35326) - http://www.bohemiancoding.com/sketch -->
    <title>touchmeta-shape</title>
    <desc>Created with Sketch.</desc>
    <defs></defs>
    <g id="touchmeter-Page-1" stroke="none" stroke-width="1" fill="none" fill-rule="evenodd">
        <g id="tip-Artboard" transform="translate(-612.000000, -163.000000)" fill="#3A3A3A">
            <path d="M634.089379,170.123912 C633.483028,168.686607 632.667555,167.4453 631.63885,166.404073 C630.613282,165.364106 629.388977,164.536851 627.96618,163.922555 C626.547467,163.308258 625.057677,163 623.499919,163 C621.943243,163 620.453587,163.308258 619.032684,163.922555 C617.614106,164.536851 616.388828,165.364106 615.361096,166.404073 C614.334446,167.444204 613.518,168.685511 612.911676,170.123912 C612.304244,171.564367 612,173.072612 612,174.650646 C612,176.263836 612.308436,177.789042 612.924253,179.228401 C613.539907,180.666692 614.395138,181.923892 615.491784,183 L631.508216,183 C632.604835,181.923919 633.460066,180.665624 634.075747,179.228401 C634.692592,177.787973 635,176.263836 635,174.650646 C635,173.073571 634.695729,171.564394 634.089379,170.123912 Z M622.911419,165.495383 L624.091692,165.495383 L624.091692,167.628556 L622.911419,167.628556 L622.911419,165.495383 Z M616.569632,174.182533 L614.491342,173.793826 L614.697218,172.623542 L616.775671,173.013235 L616.569632,174.182533 Z M618.572816,169.65788 L617.21163,168.018249 L618.110649,167.26514 L619.468724,168.903676 L618.572816,169.65788 Z M625.862127,177.618588 C625.736776,178.153862 625.443854,178.571659 624.984666,178.873086 C624.524266,179.173378 624.025132,179.260057 623.489782,179.135365 C622.952037,179.009568 622.539643,178.712778 622.253814,178.246375 C621.851997,177.566329 621.840329,176.876734 622.223385,176.177744 L620.009244,170.697984 L623.978368,175.185555 C624.688229,175.205636 625.234157,175.516673 625.618425,176.117194 C625.905437,176.583566 625.987509,177.083284 625.862127,177.618588 Z M628.429321,169.65788 L627.530221,168.903703 L628.89138,167.265168 L629.789398,168.018276 L628.429321,169.65788 Z M630.430341,174.182533 L630.226466,173.012248 L632.30481,172.621377 L632.50974,173.790675 L630.430341,174.182533 Z" id="touchmeta-shape"></path>
        </g>
    </g>
</svg>